**ABCDEFGHIJKLMNOPQRSTUVWXYZabcdefghijklmnopqrstuvwxyz**************************
**PARASOLID !"#$%&'()*+,-./:;<=>?@[\]^_`{|}~0123456789**************************
**PART1;
MC=AMD64;
MC_MODEL=Intel64 Family 6 Model 142 Stepping 12, GenuineIntel;
MC_ID=unknown;
OS=Windows_NT;
OS_RELEASE=unknown;
FRU=Parasolid Version 31.1, build 278,  7-15-2019;
APPL=SOLIDWORKS 2020-2019269;
SITE=;
USER=unknown;
FORMAT=text;
GUISE=transmit;
KEY=servo axe;
FILE=servo axe.x_t;
DATE=Sat Mar 25 07:29:30 2023;
**PART2;
SCH=SCH_3101278_31100;
USFLD_SIZE=0;
**PART3;
**END_OF_HEADER*****************************************************************
T51 : TRANSMIT FILE created by modeller version 310127823 SCH_3101278_31100_1300
6222 0 12 34 CCCCCCI4 mesh1006 0 I8 polyline1008 0 CCCCCCCDI5 owner1040 0 CCCCCC
I13 boundary_mesh1006 0 I17 boundary_polyline1008 0 CCCA16 index_map_offset0 0 1
 dA9 index_map82 0 A17 node_id_index_map82 0 A20 schema_embedding_map82 0 A5 chi
ld12 0 A14 lowest_node_id0 0 1 dA16 mesh_offset_data206 0 Z1 1462 2 3 0 0 0 0 0
 0 1e3 1e-8 0 4 0 1 0 1 1 5 6 7 8 0 0 9 10 11 0 0 0 0 0 0 0 81 255 2 2 1430 12 1
 13 0 0 0 0 14 70 11 CI9 list_type0 0 1 uI10 notransmit0 0 1 lCCCDCCDI12 finger_
index0 0 1 dI12 finger_block1012 0 CZ3 0 4 T1 0 0 9 20 1 15 15 13 255 5 267 0 1
 0 16 0 0 17 0 51 255 6 254 0 18 19 0 0 -.017 .002 0 0 -1 0 .002 0 0 -1 30 255 7
 266 0 10 20 0 0 +.01711764705882355 .002 -.00199653679393849 0 -1 0 29 255 8 19
5 0 21 22 0 .01711764705882355 0 .001996536793938485 19 8 CCCCCCCA5 owner12 0 Z9
 89 0 1 17 0 23 V0 16 255 10 218 0 ?24 0 25 7 0 0 1 18 255 11 86 0 26 0 27 28 ?1
 17 255 26 0 29 30 31 11 32 33 0 34 +18 27 83 0 31 11 35 36 ?1 29 28 88 0 11 36
 37 .01711764705882355 .002 .001996536793938485 29 36 85 0 27 38 28 .002 .002 .0
0288735268984507 29 37 206 0 39 28 40 .01711764705882355 0 -.00199653679393849 1
8 39 181 0 41 42 0 37 ?1 29 40 205 0 42 37 43 .002 0 -.00288735268984507 18 42 1
80 0 44 45 39 40 ?1 29 43 204 0 45 40 46 .002 0 -.0075 18 45 179 0 47 48 42 43 ?
1 29 46 203 0 48 43 49 -.002 0 -.0075 18 48 178 0 50 51 45 46 ?1 29 49 202 0 51
 46 52 -.002 0 -.00288735268984507 18 51 177 0 53 54 48 49 ?1 29 52 201 0 54 49
 55 -.01711764705882355 0 -.00199653679393849 18 54 176 0 56 57 51 52 ?1 29 55 2
00 0 57 52 58 -.01711764705882355 0 .00199653679393849 18 57 175 0 59 60 54 55 ?
1 29 58 199 0 60 55 61 -.002 0 .00288735268984507 18 60 174 0 62 63 57 58 ?1 29
 61 198 0 63 58 64 -.002 0 .0075 18 63 173 0 65 66 60 61 ?1 29 64 197 0 66 61 22
 .002 0 .0075 18 66 172 0 67 68 63 64 ?1 29 22 196 0 68 64 8 .002 0 .00288735268
984507 18 68 171 0 69 21 66 22 ?1 17 69 0 70 71 72 68 73 74 0 75 +18 21 170 0 76
 77 68 8 ?1 17 76 0 78 34 75 21 79 80 0 81 +18 77 53 0 82 83 21 84 ?1 17 82 0 85
 24 86 77 87 88 0 30 -18 83 56 0 87 89 77 90 ?1 29 84 55 0 77 0 90 .017117647058
82355 .002 -.00199653679393849 29 90 58 0 83 84 91 .002 .002 -.00288735268984507
 29 91 61 0 89 90 92 .002 .002 -.0075 18 89 59 0 93 94 83 91 ?1 29 92 64 0 94 91
 95 -.002 .002 -.0075 18 94 62 0 96 97 89 92 ?1 29 95 67 0 97 92 98 -.002 .002 -
.00288735268984507 18 97 65 0 99 100 94 95 ?1 29 98 70 0 100 95 101 -.0171176470
5882355 .002 -.00199653679393849 18 100 68 0 102 103 97 98 ?1 29 101 73 0 103 98
 104 -.01711764705882355 .002 .00199653679393849 18 103 71 0 105 106 100 101 ?1
 29 104 76 0 106 101 107 -.002 .002 .00288735268984507 18 106 74 0 108 109 103 1
04 ?1 29 107 79 0 109 104 38 -.002 .002 .0075 18 109 77 0 110 35 106 107 ?1 29 3
8 82 0 35 107 36 .002 .002 .0075 18 35 80 0 111 27 109 38 ?1 17 111 0 29 31 110
 35 112 113 0 114 +15 255 29 4 0 30 16 115 17 31 0 29 26 111 27 116 117 0 71 +17
 110 0 29 111 108 109 118 119 0 120 +17 112 0 121 122 114 109 111 113 0 0 -16 11
3 41 0 ?111 117 119 123 0 0 1 17 114 0 121 112 67 35 72 124 0 116 -15 121 223 0
 67 125 0 17 67 0 121 114 122 66 126 127 0 72 +17 72 0 70 69 116 66 114 124 0 73
 +16 124 209 0 ?72 128 129 130 0 0 1 17 116 0 70 72 71 35 31 117 0 0 -15 70 221
 0 69 131 0 17 71 0 70 116 69 27 75 129 0 32 -16 117 45 0 ?31 33 113 132 0 0 1 1
6 33 49 0 ?26 133 117 134 0 0 1 30 132 47 0 117 123 134 0 +.002 .002 .0075 -2820
598496915875e-31 0 -1 31 255 123 43 0 113 135 132 0 +-212515549147678e-32 .002 .
0075 0 1 0 0 0 1 .002 30 134 51 0 33 132 136 0 +.01711764705882355 .002 .0019965
36793938485 .998268396969243 0 -.0588235294117647 31 136 194 0 137 134 138 0 +.0
17 0 0 0 1 0 0 0 -1 .002 16 137 166 0 ?139 140 141 136 0 0 1 30 138 193 0 140 13
6 142 0 +.01711764705882355 0 -.00199653679393849 -.998268396969243 0 -.05882352
94117647 16 140 162 0 ?44 143 137 138 0 0 1 30 142 192 0 143 138 144 0 +.002 0 -
.0075 2820598496915875e-31 0 -1 16 143 158 0 ?47 145 140 142 0 0 1 31 144 191 0
 145 142 146 0 +-212515549147678e-32 0 -.0075 0 1 0 0 0 -1 .002 16 145 154 0 ?50
 147 143 144 0 0 1 30 146 190 0 147 144 148 0 +-.002 0 -.0075 846179549074763e-3
0 0 1 16 147 150 0 ?53 149 145 146 0 0 1 30 148 189 0 149 146 150 0 +-.017117647
05882355 0 -.00199653679393849 -.998268396969243 0 .0588235294117647 16 149 146
 0 ?56 151 147 148 0 0 1 31 150 188 0 151 148 152 0 +-.017 0 0 0 1 0 0 0 1 .002
 16 151 142 0 ?59 153 149 150 0 0 1 30 152 187 0 153 150 154 0 +-.01711764705882
355 0 .001996536793938485 .998268396969243 0 .0588235294117647 16 153 138 0 ?62
 155 151 152 0 0 1 30 154 186 0 155 152 156 0 +-.002 0 .0075 -846179549074763e-3
0 0 1 16 155 134 0 ?65 127 153 154 0 0 1 31 156 185 0 127 154 157 0 +-2125155491
47678e-32 0 .0075 0 1 0 0 0 1 .002 16 127 130 0 ?67 74 155 156 0 0 1 30 157 184
 0 74 156 158 0 +.002 0 .0075 -2820598496915875e-31 0 -1 16 74 126 0 ?69 80 127
 157 0 0 1 30 158 183 0 80 157 159 0 +.01711764705882355 0 .001996536793938485 .
998268396969243 0 -.0588235294117647 16 80 122 0 ?76 160 74 158 0 0 1 30 159 255
 0 133 158 161 0 +.01711764705882355 .002 .001996536793938485 0 -1 0 16 133 207
 0 ?81 129 33 159 0 0 1 30 161 256 0 129 159 130 0 +.002 .002 .00288735268984507
 0 -1 0 16 129 208 0 ?75 124 133 161 0 0 1 30 130 257 0 124 161 162 0 +.002 .002
 .0075 0 -1 0 30 162 258 0 128 130 163 0 +-.002 .002 .0075 0 -1 0 16 128 210 0 ?
122 164 124 162 0 0 1 30 163 259 0 164 162 165 0 +-.002 .002 .00288735268984507
 0 -1 0 16 164 211 0 ?166 167 128 163 0 0 1 30 165 260 0 167 163 168 0 +-.017117
64705882355 .002 .00199653679393849 0 -1 0 16 167 212 0 ?169 170 164 165 0 0 1 3
0 168 261 0 170 165 171 0 +-.01711764705882355 .002 -.00199653679393849 0 -1 0 1
6 170 213 0 ?172 173 167 168 0 0 1 30 171 262 0 173 168 174 0 +-.002 .002 -.0028
8735268984507 0 -1 0 16 173 214 0 ?175 176 170 171 0 0 1 30 174 263 0 176 171 17
7 0 +-.002 .002 -.0075 0 -1 0 16 176 215 0 ?178 179 173 174 0 0 1 30 177 264 0 1
79 174 20 0 +.002 .002 -.0075 0 -1 0 16 179 216 0 ?180 25 176 177 0 0 1 30 20 26
5 0 25 177 7 0 +.002 .002 -.00288735268984507 0 -1 0 16 25 217 0 ?181 10 179 20
 0 0 1 17 181 0 182 47 183 42 86 25 0 184 +15 182 237 0 47 185 0 17 47 0 182 186
 181 45 184 143 0 180 +17 183 0 182 181 186 83 93 187 0 0 -17 86 0 85 82 44 83 1
81 25 0 183 -17 184 0 188 41 189 42 47 143 0 0 -15 188 121 0 190 191 192 17 41 0
 188 190 184 39 44 140 0 24 -17 189 0 188 184 193 45 50 145 0 0 -17 193 0 188 18
9 194 48 53 147 0 0 -17 50 0 195 196 180 48 189 145 0 178 +15 195 235 0 50 197 0
 17 196 0 195 198 50 94 178 176 0 199 -17 180 0 195 50 198 45 186 179 0 189 +17
 178 0 200 53 199 48 196 176 0 193 +15 200 233 0 53 201 0 17 53 0 200 202 178 51
 193 147 0 175 +17 199 0 200 178 202 94 99 203 0 0 -17 202 0 200 199 53 97 175 1
73 0 204 -17 99 0 29 102 96 97 199 203 0 202 +16 203 21 0 ?99 205 206 207 0 0 1
 16 205 25 0 ?102 208 203 209 0 0 1 16 206 17 0 ?96 203 187 210 0 0 1 30 207 23
 0 203 210 209 0 +-.002 .002 -.0075 846179549074763e-30 0 1 31 210 19 0 206 211
 207 0 +-212515549147678e-32 .002 -.0075 0 1 0 0 0 -1 .002 30 209 27 0 205 207 2
12 0 +-.01711764705882355 .002 -.00199653679393849 -.998268396969243 0 .05882352
94117647 31 212 31 0 208 209 213 0 +-.017 .002 0 0 1 0 0 0 1 .002 16 208 29 0 ?1
05 214 205 212 0 0 1 30 213 35 0 214 212 135 0 +-.01711764705882355 .002 .001996
536793938485 .998268396969243 0 .0588235294117647 16 214 33 0 ?108 119 208 213 0
 0 1 30 135 39 0 119 213 123 0 +-.002 .002 .0075 -846179549074763e-30 0 1 16 119
 37 0 ?110 113 214 135 0 0 1 17 108 0 29 110 105 106 215 214 0 216 +17 105 0 29
 108 102 103 217 208 0 218 +17 215 0 219 169 216 103 108 214 0 0 -17 216 0 219 2
15 62 106 166 164 0 118 -15 219 227 0 62 220 0 17 62 0 219 216 169 60 221 153 0
 166 +17 166 0 222 65 118 60 216 164 0 223 +17 118 0 222 166 120 106 110 119 0 0
 -15 222 225 0 65 224 0 17 120 0 222 118 65 109 122 128 0 112 -17 65 0 222 120 1
66 63 223 155 0 122 +17 122 0 121 67 112 63 120 128 0 126 +17 126 0 188 223 73 6
3 67 127 0 0 -17 223 0 188 221 126 60 65 155 0 0 -17 73 0 188 126 79 66 69 74 0
 0 -17 79 0 188 73 190 68 76 80 0 0 -17 190 0 188 79 41 21 139 137 0 0 -17 139 0
 225 226 81 39 190 137 0 0 +15 225 241 0 139 18 0 17 226 0 225 227 139 77 24 10
 0 0 -17 81 0 225 139 227 21 34 133 0 190 +17 227 0 225 81 226 11 30 160 0 0 -17
 34 0 78 32 76 11 81 133 0 227 -15 78 219 0 76 228 0 17 32 0 78 75 34 27 26 33 0
 0 -17 75 0 78 76 32 68 71 129 0 79 +14 255 228 220 229 ?230 131 78 5 231 -0 0 2
30 131 23 81 1 229 1431 232 228 233 0 0 234 235 14 230 353 234 ?236 228 237 5 23
8 +0 0 236 228 23 14 131 222 239 ?228 125 70 5 240 -0 0 228 125 23 50 255 231 24
3 0 228 241 240 0 +.01711764705882355 .002 .001996536793938485 -.058823529411764
7 0 -.998268396969244 -.998268396969244 0 .0588235294117647 13 23 90 0 0 0 0 0 0
 9 16 14 16 914 242 ?191 0 29 5 243 -0 0 191 0 23 81 1 242 1434 232 16 244 0 239
 245 246 14 191 908 245 ?18 16 247 5 241 +0 0 18 16 23 50 243 3 0 16 238 241 0 +
.017 .002 0 0 -1 0 0 0 -1 51 238 366 0 230 248 243 0 --.017 .002 0 0 -1 0 5e-4 0
 0 -1 50 241 182 0 191 243 231 0 +.017 0 0 0 -1 0 0 0 -1 51 248 404 0 236 249 23
8 0 -.017 .002 0 0 -1 0 5e-4 0 0 -1 14 236 391 250 ?251 230 252 5 248 +0 0 251 2
30 23 51 249 442 0 251 253 248 0 --.0145 .002 0 0 -1 0 5e-4 0 0 -1 14 251 429 25
4 ?255 236 256 5 249 +0 0 255 236 23 51 253 480 0 255 257 249 0 --.012 .002 0 0
 -1 0 5e-4 0 0 -1 14 255 467 258 ?259 251 260 5 253 +0 0 259 251 23 51 257 518 0
 259 261 253 0 --.0095 .002 0 0 -1 0 5e-4 0 0 -1 14 259 505 262 ?263 255 264 5 2
57 +0 0 263 255 23 51 261 556 0 263 265 257 0 --.007 .002 0 0 -1 0 5e-4 0 0 -1 1
4 263 543 266 ?267 259 268 5 261 +0 0 267 259 23 51 265 594 0 267 269 261 0 --.0
045 .002 0 0 -1 0 5e-4 0 0 -1 14 267 581 270 ?271 263 272 5 265 +0 0 271 263 23
 51 269 632 0 271 273 265 0 -.0045 .002 0 0 -1 0 5e-4 0 0 -1 14 271 619 274 ?275
 267 276 5 269 +0 0 275 267 23 51 273 670 0 275 277 269 0 -.007 .002 0 0 -1 0 5e
-4 0 0 -1 14 275 657 278 ?279 271 280 5 273 +0 0 279 271 23 51 277 708 0 279 281
 273 0 -.0095 .002 0 0 -1 0 5e-4 0 0 -1 14 279 695 282 ?283 275 284 5 277 +0 0 2
83 275 23 51 281 746 0 283 285 277 0 -.012 .002 0 0 -1 0 5e-4 0 0 -1 14 283 733
 286 ?287 279 288 5 281 +0 0 287 279 23 51 285 784 0 287 289 281 0 -.0145 .002 0
 0 -1 0 5e-4 0 0 -1 14 287 771 290 ?291 283 292 5 285 +0 0 291 283 23 51 289 822
 0 291 293 285 0 --212515549147678e-32 .002 -.0075 0 -1 0 5e-4 0 0 -1 14 291 809
 294 ?295 287 296 5 289 +0 0 295 287 23 51 293 860 0 295 297 289 0 -291144795382
393e-31 .002 -.0045 0 -1 0 5e-4 0 0 -1 14 295 847 298 ?299 291 300 5 293 +0 0 29
9 291 23 51 297 898 0 299 301 293 0 -291144795382393e-31 .002 .0045 0 -1 0 5e-4
 0 0 -1 14 299 885 302 ?303 295 304 5 297 +0 0 303 295 23 51 301 936 0 303 305 2
97 0 --212515549147678e-32 .002 .0075 0 -1 0 5e-4 0 0 -1 14 303 923 306 ?307 299
 308 5 301 +0 0 307 299 23 51 305 1069 0 307 309 301 0 -0 -.024 0 0 1 0 .002 0 0
 1 14 307 1056 310 ?311 303 312 5 305 -0 0 311 303 23 50 309 1071 0 311 0 305 0
 +0 -.024 0 0 -1 0 0 0 -1 14 311 1061 313 ?0 307 314 5 309 +0 0 0 307 23 81 1 31
3 1452 232 311 315 0 310 316 317 15 314 1063 0 318 311 0 17 318 0 314 318 318 0
 319 320 0 0 +17 319 0 321 319 319 0 318 320 0 0 -16 320 1048 0 ?318 322 0 323 0
 0 1 16 322 1047 0 ?324 325 320 326 0 0 1 31 323 1074 0 320 0 326 0 +0 -.024 0 0
 -1 0 0 0 -1 .002 31 326 1072 0 322 323 327 0 -0 0 0 0 -1 0 0 0 -1 .002 31 327 9
40 0 328 326 329 0 +-212515549147678e-32 .002 .0075 0 1 0 0 0 -1 5e-4 16 328 920
 0 ?330 331 325 327 0 0 1 31 329 939 0 325 327 332 0 +-212515549147678e-32 0 .00
75 0 1 0 0 0 -1 5e-4 16 325 917 0 ?333 328 322 329 0 0 1 31 332 902 0 334 329 33
5 0 +291144795382393e-31 .002 .0045 0 1 0 0 0 -1 5e-4 16 334 882 0 ?336 337 331
 332 0 0 1 31 335 901 0 331 332 338 0 +291144795382393e-31 0 .0045 0 1 0 0 0 -1
 5e-4 16 331 879 0 ?339 334 328 335 0 0 1 31 338 864 0 340 335 341 0 +2911447953
82393e-31 .002 -.0045 0 1 0 0 0 1 5e-4 16 340 844 0 ?342 343 337 338 0 0 1 31 34
1 863 0 337 338 344 0 +291144795382393e-31 0 -.0045 0 1 0 0 0 1 5e-4 16 337 841
 0 ?345 340 334 341 0 0 1 31 344 826 0 346 341 347 0 +-212515549147678e-32 .002
 -.0075 0 1 0 0 0 1 5e-4 16 346 806 0 ?348 349 343 344 0 0 1 31 347 825 0 343 34
4 350 0 +-212515549147678e-32 0 -.0075 0 1 0 0 0 1 5e-4 16 343 803 0 ?351 346 34
0 347 0 0 1 31 350 788 0 352 347 353 0 +.0145 .002 0 0 1 0 0 0 -1 5e-4 16 352 76
8 0 ?354 355 349 350 0 0 1 31 353 787 0 349 350 356 0 +.0145 0 0 0 1 0 0 0 -1 5e
-4 16 349 765 0 ?357 352 346 353 0 0 1 31 356 750 0 358 353 359 0 +.012 .002 0 0
 1 0 0 0 -1 5e-4 16 358 730 0 ?360 361 355 356 0 0 1 31 359 749 0 355 356 362 0
 +.012 0 0 0 1 0 0 0 -1 5e-4 16 355 727 0 ?363 358 352 359 0 0 1 31 362 712 0 36
4 359 365 0 +.0095 .002 0 0 1 0 0 0 -1 5e-4 16 364 692 0 ?366 367 361 362 0 0 1
 31 365 711 0 361 362 368 0 +.0095 0 0 0 1 0 0 0 -1 5e-4 16 361 689 0 ?369 364 3
58 365 0 0 1 31 368 674 0 370 365 371 0 +.007 .002 0 0 1 0 0 0 -1 5e-4 16 370 65
4 0 ?372 373 367 368 0 0 1 31 371 673 0 367 368 374 0 +.007 0 0 0 1 0 0 0 -1 5e-
4 16 367 651 0 ?375 370 364 371 0 0 1 31 374 636 0 376 371 377 0 +.0045 .002 0 0
 1 0 0 0 -1 5e-4 16 376 616 0 ?378 379 373 374 0 0 1 31 377 635 0 373 374 380 0
 +.0045 0 0 0 1 0 0 0 -1 5e-4 16 373 613 0 ?381 376 370 377 0 0 1 31 380 598 0 3
82 377 383 0 +-.0045 .002 0 0 1 0 0 0 1 5e-4 16 382 578 0 ?384 385 379 380 0 0 1
 31 383 597 0 379 380 386 0 +-.0045 0 0 0 1 0 0 0 1 5e-4 16 379 575 0 ?387 382 3
76 383 0 0 1 31 386 560 0 388 383 389 0 +-.007 .002 0 0 1 0 0 0 1 5e-4 16 388 54
0 0 ?390 391 385 386 0 0 1 31 389 559 0 385 386 392 0 +-.007 0 0 0 1 0 0 0 1 5e-
4 16 385 537 0 ?393 388 382 389 0 0 1 31 392 522 0 394 389 395 0 +-.0095 .002 0
 0 1 0 0 0 1 5e-4 16 394 502 0 ?396 397 391 392 0 0 1 31 395 521 0 391 392 398 0
 +-.0095 0 0 0 1 0 0 0 1 5e-4 16 391 499 0 ?399 394 388 395 0 0 1 31 398 484 0 4
00 395 401 0 +-.012 .002 0 0 1 0 0 0 1 5e-4 16 400 464 0 ?402 403 397 398 0 0 1
 31 401 483 0 397 398 404 0 +-.012 0 0 0 1 0 0 0 1 5e-4 16 397 461 0 ?405 400 39
4 401 0 0 1 31 404 446 0 406 401 407 0 +-.0145 .002 0 0 1 0 0 0 1 5e-4 16 406 42
6 0 ?408 409 403 404 0 0 1 31 407 445 0 403 404 410 0 +-.0145 0 0 0 1 0 0 0 1 5e
-4 16 403 423 0 ?411 406 400 407 0 0 1 31 410 408 0 412 407 413 0 +.017 .002 0 0
 1 0 0 0 -1 5e-4 16 412 388 0 ?414 415 409 410 0 0 1 31 413 407 0 409 410 416 0
 +.017 0 0 0 1 0 0 0 -1 5e-4 16 409 385 0 ?417 412 406 413 0 0 1 31 416 370 0 14
1 413 418 0 +-.017 .002 0 0 1 0 0 0 1 5e-4 16 141 350 0 ?419 137 415 416 0 0 1 3
1 418 369 0 415 416 420 0 +-.017 0 0 0 1 0 0 0 1 5e-4 16 415 347 0 ?421 141 412
 418 0 0 1 31 420 7 0 160 418 422 0 +.017 .002 0 0 1 0 0 0 -1 .002 16 160 5 0 ?3
0 88 80 420 0 0 1 30 422 11 0 88 420 211 0 +.01711764705882355 .002 -.0019965367
9393849 -.998268396969243 0 -.0588235294117647 16 88 9 0 ?87 187 160 422 0 0 1 3
0 211 15 0 187 422 210 0 +.002 .002 -.0075 2820598496915875e-31 0 -1 16 187 13 0
 ?93 206 88 211 0 0 1 17 93 0 29 96 87 89 183 187 0 186 +17 96 0 29 99 93 94 198
 206 0 196 +17 87 0 29 93 30 83 82 88 0 86 +17 186 0 182 183 47 89 180 179 0 198
 -17 198 0 195 180 196 89 96 206 0 0 -17 30 0 29 87 26 77 227 160 0 226 +17 421
 0 423 421 421 0 424 415 0 0 +15 423 335 0 421 191 188 17 424 0 425 424 424 0 42
1 415 0 0 -15 425 357 0 424 230 0 17 419 0 237 419 419 0 426 141 0 0 +15 237 356
 0 419 230 425 17 426 0 115 426 426 0 419 141 0 0 -15 115 342 0 426 16 427 15 42
7 380 0 428 16 429 17 428 0 427 428 428 0 414 412 0 0 -15 429 418 0 430 16 431 1
7 430 0 429 430 430 0 408 406 0 0 -15 431 456 0 432 16 433 17 432 0 431 432 432
 0 402 400 0 0 -15 433 494 0 434 16 435 17 434 0 433 434 434 0 396 394 0 0 -15 4
35 532 0 436 16 437 17 436 0 435 436 436 0 390 388 0 0 -15 437 570 0 438 16 439
 17 438 0 437 438 438 0 384 382 0 0 -15 439 608 0 440 16 441 17 440 0 439 440 44
0 0 378 376 0 0 -15 441 646 0 442 16 443 17 442 0 441 442 442 0 372 370 0 0 -15
 443 684 0 444 16 445 17 444 0 443 444 444 0 366 364 0 0 -15 445 722 0 446 16 44
7 17 446 0 445 446 446 0 360 358 0 0 -15 447 760 0 448 16 449 17 448 0 447 448 4
48 0 354 352 0 0 -15 449 798 0 450 16 451 17 450 0 449 450 450 0 348 346 0 0 -15
 451 836 0 452 16 453 17 452 0 451 452 452 0 342 340 0 0 -15 453 874 0 454 16 45
5 17 454 0 453 454 454 0 336 334 0 0 -15 455 912 0 456 16 0 17 456 0 455 456 456
 0 330 328 0 0 -17 330 0 308 330 330 0 456 328 0 0 +15 308 926 0 330 303 457 15
 457 927 0 458 303 0 17 458 0 457 458 458 0 333 325 0 0 -17 333 0 459 333 333 0
 458 325 0 0 +15 459 905 0 333 191 0 17 336 0 304 336 336 0 454 334 0 0 +15 304
 888 0 336 299 460 15 460 889 0 461 299 0 17 461 0 460 461 461 0 339 331 0 0 -17
 339 0 247 339 339 0 461 331 0 0 +15 247 867 0 339 191 462 15 462 791 0 351 191
 463 17 351 0 462 351 351 0 464 343 0 0 +15 463 715 0 363 191 465 17 363 0 463 3
63 363 0 466 355 0 0 +15 465 639 0 375 191 467 17 375 0 465 375 375 0 468 367 0
 0 +15 467 563 0 387 191 469 17 387 0 467 387 387 0 470 379 0 0 +15 469 487 0 39
9 191 471 17 399 0 469 399 399 0 472 391 0 0 +15 471 411 0 411 191 423 17 411 0
 471 411 411 0 473 403 0 0 +17 473 0 474 473 473 0 411 403 0 0 -15 474 433 0 473
 251 0 17 472 0 475 472 472 0 399 391 0 0 -15 475 509 0 472 259 0 17 470 0 476 4
70 470 0 387 379 0 0 -15 476 585 0 470 267 0 17 468 0 477 468 468 0 375 367 0 0
 -15 477 661 0 468 275 0 17 466 0 478 466 466 0 363 355 0 0 -15 478 737 0 466 28
3 0 17 464 0 479 464 464 0 351 343 0 0 -15 479 813 0 464 291 0 17 342 0 300 342
 342 0 452 340 0 0 +15 300 850 0 342 295 480 15 480 851 0 481 295 0 17 481 0 480
 481 481 0 345 337 0 0 -17 345 0 482 345 345 0 481 337 0 0 +15 482 829 0 345 191
 459 17 348 0 296 348 348 0 450 346 0 0 +15 296 812 0 348 291 479 17 354 0 292 3
54 354 0 448 352 0 0 +15 292 774 0 354 287 483 15 483 775 0 484 287 0 17 484 0 4
83 484 484 0 357 349 0 0 -17 357 0 485 357 357 0 484 349 0 0 +15 485 753 0 357 1
91 482 17 360 0 288 360 360 0 446 358 0 0 +15 288 736 0 360 283 478 17 366 0 284
 366 366 0 444 364 0 0 +15 284 698 0 366 279 486 15 486 699 0 487 279 0 17 487 0
 486 487 487 0 369 361 0 0 -17 369 0 488 369 369 0 487 361 0 0 +15 488 677 0 369
 191 485 17 372 0 280 372 372 0 442 370 0 0 +15 280 660 0 372 275 477 17 378 0 2
76 378 378 0 440 376 0 0 +15 276 622 0 378 271 489 15 489 623 0 490 271 0 17 490
 0 489 490 490 0 381 373 0 0 -17 381 0 491 381 381 0 490 373 0 0 +15 491 601 0 3
81 191 488 17 384 0 272 384 384 0 438 382 0 0 +15 272 584 0 384 267 476 17 390 0
 268 390 390 0 436 388 0 0 +15 268 546 0 390 263 492 15 492 547 0 493 263 0 17 4
93 0 492 493 493 0 393 385 0 0 -17 393 0 494 393 393 0 493 385 0 0 +15 494 525 0
 393 191 491 17 396 0 264 396 396 0 434 394 0 0 +15 264 508 0 396 259 475 17 402
 0 260 402 402 0 432 400 0 0 +15 260 470 0 402 255 495 15 495 471 0 496 255 0 17
 496 0 495 496 496 0 405 397 0 0 -17 405 0 497 405 405 0 496 397 0 0 +15 497 449
 0 405 191 494 17 408 0 256 408 408 0 430 406 0 0 +15 256 432 0 408 251 474 17 4
14 0 252 414 414 0 428 412 0 0 +15 252 394 0 414 236 498 15 498 395 0 499 236 0
 17 499 0 498 499 499 0 417 409 0 0 -17 417 0 500 417 417 0 499 409 0 0 +15 500
 373 0 417 191 497 17 324 0 192 324 324 0 501 322 0 0 +15 192 297 0 324 191 500
 17 501 0 312 501 501 0 324 322 0 0 -15 312 1059 0 501 307 321 15 321 1060 0 319
 307 0 80 255 1 232 502 503 9000 1 1 1 1 1 1 1 1 0 FFFFTFTFFFFFFF1 81 1 315 1363
 504 311 0 313 505 0 506 81 1 310 1451 232 307 505 0 306 313 507 81 1 316 1453 2
32 125 508 0 313 509 510 82 255 1 317 352780423 14 125 224 316 ?131 224 121 5 51
1 -0 0 131 224 23 81 1 508 1343 504 125 0 316 512 513 514 81 1 509 1454 232 224
 512 0 316 515 516 82 1 510 -1389690758 14 224 226 509 ?125 220 222 5 517 -0 0 1
25 220 23 81 1 512 1342 504 224 0 509 518 508 519 81 1 515 1455 232 220 518 0 50
9 520 521 82 1 516 -1389428614 14 220 228 515 ?224 522 219 5 523 -0 0 224 522 23
 81 1 518 1341 504 220 0 515 524 512 525 81 1 520 1456 232 522 524 0 515 526 527
 82 1 521 -1389166470 14 522 230 520 ?220 528 529 5 530 -0 0 220 528 23 81 1 524
 1340 504 522 0 520 531 518 532 81 1 526 1457 232 528 531 0 520 533 534 82 1 527
 -1388904326 14 528 232 526 ?522 201 535 5 536 -0 0 522 201 23 81 1 531 1339 504
 528 0 526 537 524 538 81 1 533 1458 232 201 537 0 526 539 540 82 1 534 -1388642
182 14 201 234 533 ?528 197 200 5 541 -0 0 528 197 23 81 1 537 1338 504 201 0 53
3 542 531 543 81 1 539 1459 232 197 542 0 533 544 545 82 1 540 -1388380038 14 19
7 236 539 ?201 185 195 5 546 -0 0 201 185 23 81 1 542 1337 504 197 0 539 547 537
 548 81 1 544 1460 232 185 547 0 539 549 550 82 1 545 -1388117894 14 185 238 544
 ?197 551 182 5 552 -0 0 197 551 23 81 1 547 1336 504 185 0 544 553 542 554 81 1
 549 1461 232 551 553 0 544 555 556 82 1 550 -1387855750 14 551 240 549 ?185 18
 85 5 19 -0 0 185 18 23 81 1 553 1335 504 551 0 549 557 547 558 81 1 555 1462 23
2 18 557 0 549 0 559 82 1 556 -1387593606 14 18 242 555 ?551 191 225 5 6 -0 0 55
1 191 23 81 1 557 1334 504 18 0 555 560 553 561 82 1 559 -1387331462 80 1 504 0
 562 8001 0 0 0 0 3 5 0 0 0 FFFFTFTFFFFFFF2 81 1 560 1333 504 191 0 245 244 557
 563 83 255 3 561 1 1 1 81 1 245 1435 232 191 560 0 242 250 564 81 1 244 1332 50
4 16 0 242 0 560 565 83 3 563 1 1 1 83 3 565 1 1 1 81 1 250 1436 232 236 566 0 2
45 254 567 82 1 564 -1296826246 81 1 566 1347 504 236 0 250 568 569 570 81 1 254
 1437 232 251 569 0 250 258 571 82 1 567 -1376386950 81 1 569 1348 504 251 0 254
 566 572 573 81 1 258 1438 232 255 572 0 254 262 574 82 1 571 -1372323718 81 1 5
72 1349 504 255 0 258 569 575 576 81 1 262 1439 232 259 575 0 258 266 577 82 1 5
74 -1368260486 81 1 575 1350 504 259 0 262 572 578 579 81 1 266 1440 232 263 578
 0 262 270 580 82 1 577 -1364197254 81 1 578 1351 504 263 0 266 575 581 582 81 1
 270 1441 232 267 581 0 266 274 583 82 1 580 -1360134022 81 1 581 1352 504 267 0
 270 578 584 585 81 1 274 1442 232 271 584 0 270 278 586 82 1 583 -1356070790 81
 1 584 1353 504 271 0 274 581 587 588 81 1 278 1443 232 275 587 0 274 282 589 82
 1 586 -1352007558 81 1 587 1354 504 275 0 278 584 590 591 81 1 282 1444 232 279
 590 0 278 286 592 82 1 589 -1347944326 81 1 590 1355 504 279 0 282 587 593 594
 81 1 286 1445 232 283 593 0 282 290 595 82 1 592 -1343881094 81 1 593 1356 504
 283 0 286 590 596 597 81 1 290 1446 232 287 596 0 286 294 598 82 1 595 -1339817
862 81 1 596 1357 504 287 0 290 593 599 600 81 1 294 1447 232 291 599 0 290 298
 601 82 1 598 -1335754630 81 1 599 1358 504 291 0 294 596 602 603 81 1 298 1448
 232 295 602 0 294 302 604 82 1 601 -1331691398 81 1 602 1359 504 295 0 298 599
 605 606 81 1 302 1449 232 299 605 0 298 306 607 82 1 604 -1327628166 81 1 605 1
360 504 299 0 302 602 608 609 81 1 306 1450 232 303 608 0 302 310 610 82 1 607 -
1323564934 81 1 608 1361 504 303 0 306 605 505 611 82 1 610 -1319501702 81 1 505
 1362 504 307 0 310 608 315 612 83 3 611 1 1 1 83 3 612 1 1 1 83 3 609 1 1 1 83
 3 606 1 1 1 83 3 603 1 1 1 83 3 600 1 1 1 83 3 597 1 1 1 83 3 594 1 1 1 83 3 59
1 1 1 1 83 3 588 1 1 1 83 3 585 1 1 1 83 3 582 1 1 1 83 3 579 1 1 1 83 3 576 1 1
 1 83 3 573 1 1 1 81 1 568 1346 504 230 0 234 233 566 613 83 3 570 1 1 1 81 1 23
4 1432 232 230 568 0 229 239 614 81 1 233 1345 504 228 0 229 513 568 615 83 3 61
3 1 1 1 81 1 513 1344 504 131 0 239 508 233 616 83 3 615 1 1 1 81 1 239 1433 232
 131 513 0 234 242 617 83 3 616 1 1 1 82 1 617 -1389952902 82 1 614 -1380450182
 79 255 15 562 SDL/TYSA_COLOUR83 3 558 1 1 1 15 85 239 0 44 551 0 50 19 253 0 55
1 552 6 0 +.01711764705882355 .002 -.00199653679393849 -.0588235294117647 0 .998
268396969244 .998268396969244 0 .0588235294117647 50 552 252 0 185 546 19 0 +.00
2 .002 -.0075 -1 0 -2820598496915875e-31 -2820598496915875e-31 0 1 51 546 251 0
 197 541 552 0 --212515549147678e-32 .002 -.0075 0 -1 0 .002 0 0 -1 50 541 250 0
 201 536 546 0 +-.002 .002 -.0075 1 0 -846179549074763e-30 -846179549074763e-30
 0 -1 50 536 249 0 528 530 541 0 +-.01711764705882355 .002 -.00199653679393849 .
0588235294117647 0 .998268396969244 .998268396969244 0 -.0588235294117647 51 530
 248 0 522 523 536 0 --.017 .002 0 0 -1 0 .002 0 0 -1 50 523 247 0 220 517 530 0
 +-.01711764705882355 .002 .001996536793938485 .0588235294117647 0 -.99826839696
9244 -.998268396969244 0 -.0588235294117647 50 517 246 0 224 511 523 0 +-.002 .0
02 .0075 1 0 846179549074763e-30 846179549074763e-30 0 -1 51 511 245 0 125 240 5
17 0 --212515549147678e-32 .002 .0075 0 -1 0 .002 0 0 -1 50 240 244 0 131 231 51
1 0 +.002 .002 .0075 -1 0 2820598496915875e-31 2820598496915875e-31 0 1 17 44 0
 85 86 24 42 41 140 0 181 +17 24 0 85 44 82 39 226 10 0 139 +83 3 554 1 1 1 83 3
 548 1 1 1 83 3 543 1 1 1 83 3 538 1 1 1 15 535 231 0 56 528 0 17 56 0 535 618 1
75 54 194 149 0 172 +17 618 0 535 204 56 100 172 170 0 217 -17 175 0 535 56 204
 51 202 173 0 194 +17 194 0 188 193 619 51 56 149 0 0 -17 172 0 529 59 217 54 61
8 170 0 619 +15 529 229 0 59 522 0 17 59 0 529 218 172 57 619 151 0 169 +17 217
 0 529 172 218 100 105 208 0 0 -17 619 0 188 194 221 54 59 151 0 0 -17 221 0 188
 619 223 57 62 153 0 0 -17 218 0 529 217 59 103 169 167 0 215 -17 169 0 219 62 2
15 57 218 167 0 221 +17 204 0 535 175 618 97 102 205 0 0 -17 102 0 29 105 99 100
 204 205 0 618 +83 3 532 1 1 1 83 3 525 1 1 1 83 3 519 1 1 1 83 3 514 1 1 1 82 1
 507 355401863 83 3 506 1 1 1 79 14 503 SWEntUnchanged82 1 246 -1296301945 82 1
 235 -1390215046 19 17 268 0 1 0 9 5 S0 74 4 CI16 index_map_offset0 0 1 dCCZ20 1
5 9 0 0 555 620 621 622 623 624 13 315 2 0 0 0 0 0 0 0 0 0 0 0 81 2 620 1084 625
 1 0 621 0 0 0 626 81 2 621 1089 627 1 620 622 0 0 0 628 81 1 622 1093 629 1 621
 623 0 0 630 81 2 623 1128 631 1 622 624 0 0 632 0 81 2 624 1263 633 1 623 13 0
 0 0 634 81 2 13 1266 635 1 624 2 0 0 0 0 80 2 635 636 637 9000 0 0 0 0 3 5 0 0
 0 FFTFFFFFFFFFFF9 1 79 16 637 BODY_RECIPE_200180 2 633 638 639 9000 0 0 0 0 3 5
 0 0 0 FFTFFFFFFFFFFF9 1 82 1 634 1 79 24 639 BODY_IN_LIGHTWEIGHT_PERM80 2 631 6
40 641 8004 0 0 0 0 3 5 0 0 0 FFTFFFFFFFFFFF2 3 83 1 632 1 79 16 641 SDL/TYSA_DE
NSITY80 1 629 642 643 9000 1 1 1 1 1 1 1 1 0 FFTFFFFFFFFFFF1 82 1 630 6073365 79
 10 643 BODY_MATCH80 2 627 644 645 9000 0 0 0 0 3 5 0 0 0 FFTFFFFFFFFFFF9 1 82 1
 628 68 79 30 645 LAST_BODY_MODIFYING_FEATURE_ID80 2 625 646 647 9000 0 0 0 0 3
 5 0 0 0 FFTFFFFFFFFFFT9 1 82 1 626 117 79 19 647 ENT_TIME_STAMP_200180 2 12 648
 649 9000 0 0 0 0 3 5 0 0 0 FFTFFFFFFFFFFF9 1 82 1 14 102 79 12 649 ATOM_ID_2001
1 0 
